<?xml version="1.0" encoding="UTF-8"?>
<svg id="Layer_1" data-name="Layer 1" xmlns="http://www.w3.org/2000/svg" version="1.1" viewBox="0 0 473 192.54">
  <path d="M57.95,6.51l-6.55.35L0,58.23v52.53h37.41V41.68h20.54c19.52,0,33.55,14.23,33.55,35.99s-14.03,35.99-33.55,35.99h-20.54s-37.41,0-37.41,0v35.18h57.95c39.25,0,69.14-30.9,69.14-71.16S97.2,6.51,57.95,6.51Z" fill="#0040ff" stroke-width="0"/>
  <g>
    <path d="M138.89,19.32C138.89,8.74,147.84,0,158.41,0s19.52,8.74,19.52,19.31-8.95,19.52-19.52,19.52-19.52-8.95-19.52-19.52ZM141.54,47.17h33.76v101.66h-33.76V47.17Z" fill="#0040ff" stroke-width="0"/>
    <path d="M300.75,47.17v97.59c0,33.95-26.84,47.78-53.48,47.78-22.16,0-40.87-8.34-50.02-24.81l28.06-16.27c4.47,7.12,10.57,11.59,21.55,11.59s20.54-5.69,20.54-18.3v-9.76c-6.51,7.93-15.86,12.61-28.47,12.61-28.26,0-48.4-23.38-48.4-51.64s20.13-51.64,48.4-51.64c12.61,0,21.96,4.68,28.47,12.61v-9.76h33.35ZM267.41,95.97c0-12.2-8.74-21.14-21.56-21.14s-21.55,8.95-21.55,21.14,8.74,21.15,21.55,21.15,21.56-8.95,21.56-21.15Z" fill="#0040ff" stroke-width="0"/>
    <path d="M383.93,148.83l-17.69-25.01-17.69,25.01h-38.03l36.81-51.85-35.38-49.81h38.03l16.27,22.97,16.27-22.97h38.23l-35.38,49.81,36.81,51.85h-38.23Z" fill="#0040ff" stroke-width="0"/>
  </g>
  <path d="M433.96,137.58c0-10.57,8.95-19.31,19.52-19.31s19.52,8.74,19.52,19.31-8.95,19.52-19.52,19.52-19.52-8.95-19.52-19.52Z" fill="#2ec18b" stroke-width="0"/>
  <polygon points="51.4 6.51 51.4 57.88 0 57.88 51.4 6.51" fill="#2ec18b" stroke-width="0"/>
</svg>